<svg width="900" height="620" viewBox="0 0 900 620" fill="none" xmlns="http://www.w3.org/2000/svg">
  <defs>
    <linearGradient id="bg" x1="80" y1="70" x2="760" y2="560" gradientUnits="userSpaceOnUse">
      <stop offset="0" stop-color="#FFE7D6"/>
      <stop offset="0.55" stop-color="#FFD3A8"/>
      <stop offset="1" stop-color="#FFC078"/>
    </linearGradient>
    <linearGradient id="shirt" x1="390" y1="255" x2="610" y2="500" gradientUnits="userSpaceOnUse">
      <stop offset="0" stop-color="#FF7A1A"/>
      <stop offset="1" stop-color="#E85500"/>
    </linearGradient>
    <linearGradient id="phone" x1="560" y1="300" x2="640" y2="390" gradientUnits="userSpaceOnUse">
      <stop offset="0" stop-color="#1B2545"/>
      <stop offset="1" stop-color="#0F172A"/>
    </linearGradient>
    <radialGradient id="glow" cx="0" cy="0" r="1" gradientUnits="userSpaceOnUse" gradientTransform="translate(610 310) rotate(90) scale(120 140)">
      <stop stop-color="#FFF7ED" stop-opacity="0.95"/>
      <stop offset="1" stop-color="#FFF7ED" stop-opacity="0"/>
    </radialGradient>
  </defs>

  <rect x="0" y="0" width="900" height="620" rx="44" fill="url(#bg)"/>
  <circle cx="180" cy="130" r="130" fill="#FFF5EB" fill-opacity="0.72"/>
  <circle cx="760" cy="110" r="88" fill="#FFF0E1" fill-opacity="0.7"/>
  <circle cx="745" cy="500" r="118" fill="#FFE8D1" fill-opacity="0.8"/>

  <path d="M90 520C200 430 340 445 430 520" stroke="#F59E0B" stroke-opacity="0.28" stroke-width="10" stroke-linecap="round"/>
  <path d="M480 520C575 435 725 432 830 520" stroke="#FB923C" stroke-opacity="0.28" stroke-width="10" stroke-linecap="round"/>

  <ellipse cx="460" cy="560" rx="180" ry="34" fill="#D97706" fill-opacity="0.18"/>

  <path d="M386 260C414 236 454 228 486 246C516 264 524 304 508 334C494 360 468 376 440 374C410 372 384 350 372 322C362 296 366 276 386 260Z" fill="#F6C8A6"/>

  <path d="M386 281C388 248 420 220 458 220C494 220 524 248 530 286C520 282 510 280 498 280C478 280 460 288 448 302C438 296 426 292 412 292C402 292 394 294 386 281Z" fill="#1F2937"/>

  <path d="M426 322C434 334 450 340 468 340C486 340 502 334 510 322" stroke="#9A3412" stroke-width="6" stroke-linecap="round"/>

  <path d="M396 305C404 300 414 300 422 306" stroke="#7C2D12" stroke-width="4" stroke-linecap="round"/>
  <path d="M474 306C482 300 492 300 500 305" stroke="#7C2D12" stroke-width="4" stroke-linecap="round"/>

  <path d="M330 515C336 410 372 336 430 315C458 305 494 305 522 318C582 344 624 424 640 515" fill="url(#shirt)"/>

  <path d="M438 396C462 426 512 448 560 448" stroke="#FDBA74" stroke-width="12" stroke-linecap="round"/>
  <path d="M561 442C542 438 528 424 526 405C524 386 538 368 558 366C576 364 594 378 598 397" stroke="#F6C8A6" stroke-width="16" stroke-linecap="round"/>

  <rect x="560" y="292" width="82" height="122" rx="14" fill="url(#phone)"/>
  <rect x="570" y="304" width="62" height="90" rx="8" fill="#111827"/>
  <rect x="593" y="398" width="16" height="6" rx="3" fill="#334155"/>
  <circle cx="602" cy="350" r="104" fill="url(#glow)"/>

  <path d="M340 401C352 384 378 378 404 388" stroke="#F6C8A6" stroke-width="14" stroke-linecap="round"/>
  <path d="M404 390C426 398 444 414 452 434" stroke="#F6C8A6" stroke-width="14" stroke-linecap="round"/>

  <g opacity="0.58">
    <circle cx="132" cy="246" r="10" fill="#F59E0B"/>
    <circle cx="172" cy="276" r="6" fill="#FB923C"/>
    <circle cx="200" cy="244" r="4" fill="#EA580C"/>
  </g>

  <g opacity="0.44">
    <path d="M662 220C690 230 706 252 714 280" stroke="#FB923C" stroke-width="6" stroke-linecap="round"/>
    <path d="M686 198C724 214 748 246 758 286" stroke="#F59E0B" stroke-width="4" stroke-linecap="round"/>
  </g>
</svg>
